{
	"asset":{
		"generator":"Khronos glTF Blender I/O v4.5.47",
		"version":"2.0"
	},
	"scene":0,
	"scenes":[
		{
			"name":"Scene",
			"nodes":[
				0
			]
		}
	],
	"nodes":[
		{
			"mesh":0,
			"name":"Mesh_0"
		}
	],
	"materials":[
		{
			"doubleSided":true,
			"name":"Material.003",
			"pbrMetallicRoughness":{
				"baseColorFactor":[
					0.800054669380188,
					0.11174943298101425,
					0.06623274087905884,
					1
				],
				"metallicFactor":0,
				"roughnessFactor":0.5
			}
		}
	],
	"meshes":[
		{
			"name":"Mesh_0",
			"primitives":[
				{
					"attributes":{
						"POSITION":0,
						"NORMAL":1,
						"TEXCOORD_0":2
					},
					"indices":3,
					"material":0
				}
			]
		}
	],
	"accessors":[
		{
			"bufferView":0,
			"componentType":5126,
			"count":15842,
			"max":[
				0.69032222032547,
				0.9894081354141235,
				0.019719675183296204
			],
			"min":[
				-0.6904513835906982,
				-0.9896965026855469,
				-0.017108917236328125
			],
			"type":"VEC3"
		},
		{
			"bufferView":1,
			"componentType":5126,
			"count":15842,
			"type":"VEC3"
		},
		{
			"bufferView":2,
			"componentType":5126,
			"count":15842,
			"type":"VEC2"
		},
		{
			"bufferView":3,
			"componentType":5123,
			"count":66504,
			"type":"SCALAR"
		}
	],
	"bufferViews":[
		{
			"buffer":0,
			"byteLength":190104,
			"byteOffset":0,
			"target":34962
		},
		{
			"buffer":0,
			"byteLength":190104,
			"byteOffset":190104,
			"target":34962
		},
		{
			"buffer":0,
			"byteLength":126736,
			"byteOffset":380208,
			"target":34962
		},
		{
			"buffer":0,
			"byteLength":133008,
			"byteOffset":506944,
			"target":34963
		}
	],
	"buffers":[
		{
			"byteLength":639952,
			"uri":"overlay.bin"
		}
	]
}
